<svg xmlns="http://www.w3.org/2000/svg" width="1865" height="685" viewBox="0 0 1865 685" version="1.1"><path d="M 405.750 4.749 C 388.288 4.903, 374 5.310, 374 5.654 C 374 5.997, 466.341 158.091, 579.203 343.639 L 784.407 681 821.810 681 C 851.324 681, 859.112 680.736, 858.732 679.750 C 858.251 678.501, 456.698 19.182, 450.370 9.250 C 447.044 4.031, 446.997 4.001, 442.262 4.235 C 439.643 4.365, 423.212 4.596, 405.750 4.749 M 1099.381 159.941 C 1084.925 162.224, 1070.751 169.980, 1060.500 181.215 C 1053.047 189.383, 1048.540 196.791, 1044.608 207.335 C 1041.704 215.121, 1041.561 216.219, 1041.531 231 C 1041.501 245.880, 1041.625 246.851, 1044.635 255.261 C 1049.089 267.711, 1053.291 274.290, 1063 284.013 C 1076.569 297.603, 1089.502 303, 1108.500 303 C 1118.909 303, 1126.874 301.476, 1134.805 297.968 L 1139.235 296.008 1137.454 293.254 C 1136.474 291.739, 1133.623 288.025, 1131.118 285 C 1128.613 281.975, 1126.533 279.409, 1126.495 279.297 C 1126.458 279.185, 1124.022 279.799, 1121.083 280.660 C 1117.333 281.760, 1112.988 282.107, 1106.517 281.824 C 1098.650 281.480, 1096.346 280.953, 1090.823 278.233 C 1082.567 274.169, 1073.973 265.305, 1069.947 256.700 C 1062.100 239.931, 1062.319 221.960, 1070.574 205.185 C 1083.995 177.911, 1116.992 171.832, 1137.935 192.775 C 1151.186 206.026, 1156.327 227.318, 1150.907 246.500 C 1149.819 250.350, 1148.672 254.487, 1148.359 255.692 C 1147.918 257.386, 1149.347 259.700, 1154.644 265.873 C 1158.415 270.267, 1162.175 273.780, 1163 273.679 C 1165.112 273.421, 1172.435 258.363, 1174.647 249.730 C 1175.978 244.538, 1176.479 239.117, 1176.426 230.500 C 1176.360 219.706, 1176.027 217.545, 1173.117 209 C 1163.151 179.737, 1140.634 161.275, 1112.903 159.631 C 1108.281 159.357, 1102.197 159.496, 1099.381 159.941 M 816.565 226.227 C 802.301 262.677, 789.815 294.637, 788.819 297.250 L 787.008 302 799.259 302 L 811.510 302 813.908 295.750 C 815.226 292.313, 818.527 283.755, 821.242 276.734 L 826.179 263.968 853.200 264.234 L 880.221 264.500 887.392 283 L 894.563 301.500 906.782 301.781 C 913.502 301.935, 919 301.919, 919 301.746 C 919 301.572, 906.671 269.721, 891.602 230.965 L 864.203 160.500 853.352 160.227 L 842.500 159.954 816.565 226.227 M 1317.249 205.717 C 1317.651 256.984, 1317.663 257.081, 1325.147 272.791 C 1332.159 287.510, 1344.980 297.918, 1360.603 301.575 C 1370.365 303.860, 1390.944 303.108, 1400.155 300.130 C 1419.720 293.805, 1433.873 275.006, 1437.939 249.947 C 1438.546 246.204, 1438.988 225.992, 1438.992 201.750 L 1439 160 1427.558 160 L 1416.116 160 1415.758 203.250 C 1415.449 240.552, 1415.162 247.325, 1413.669 252.500 C 1409.779 265.991, 1403.451 274.654, 1394.195 279.161 C 1387.088 282.621, 1371.710 283.017, 1363.559 279.949 C 1356.532 277.304, 1349.524 270.794, 1346.115 263.744 C 1340.813 252.776, 1340.680 251.478, 1340.071 204.500 L 1339.500 160.500 1328.194 160.217 L 1316.889 159.933 1317.249 205.717 M 1586.698 160.636 C 1586.314 161.019, 1586 192.983, 1586 231.667 L 1586 302 1598.007 302 L 1610.013 302 1609.757 231.250 L 1609.500 160.500 1598.448 160.219 C 1592.369 160.065, 1587.081 160.252, 1586.698 160.636 M 1759.698 160.636 C 1759.314 161.019, 1759 192.983, 1759 231.667 L 1759 302 1808.500 302 L 1858 302 1858 292 L 1858 282 1820.508 282 L 1783.015 282 1782.758 221.250 L 1782.500 160.500 1771.448 160.219 C 1765.369 160.065, 1760.081 160.252, 1759.698 160.636 M 853.031 187 C 852.979 187.275, 847.874 200.775, 841.688 217 L 830.440 246.500 852.367 246.770 C 864.427 246.918, 874.493 246.840, 874.736 246.597 C 874.979 246.354, 870.580 233.633, 864.959 218.328 C 853.719 187.716, 853.170 186.275, 853.031 187 M 270.389 327.644 C 235.250 385.815, 206.355 433.993, 206.177 434.705 C 205.913 435.760, 229.787 436, 335.008 436 L 464.163 436 462.180 432.750 C 461.089 430.962, 432.220 383.150, 398.025 326.500 C 363.830 269.850, 335.498 223.135, 335.065 222.689 C 334.632 222.243, 305.528 269.473, 270.389 327.644 M 1117.287 252.740 C 1120.469 252.939, 1125.419 252.937, 1128.287 252.736 C 1131.154 252.535, 1128.550 252.372, 1122.500 252.374 C 1116.450 252.376, 1114.104 252.541, 1117.287 252.740 M 1144 263.825 C 1144 265.144, 1157.040 280, 1158.197 280 C 1158.879 280, 1158.911 279.564, 1158.287 278.750 C 1147.567 264.757, 1144 261.031, 1144 263.825 M 1053.200 374.200 C 1052.540 374.860, 1052 376.345, 1052 377.500 C 1052 380.330, 1053.856 382, 1057 382 C 1060.144 382, 1062 380.330, 1062 377.500 C 1062 374.670, 1060.144 373, 1057 373 C 1055.570 373, 1053.860 373.540, 1053.200 374.200 M 997 383.484 L 997 392.968 992.973 390.869 C 986.926 387.717, 977.417 388.503, 972.392 392.570 C 967.071 396.877, 965 401.340, 965 408.500 C 965 415.660, 967.071 420.123, 972.392 424.430 C 977.417 428.497, 986.926 429.283, 992.973 426.131 C 996.951 424.058, 997 424.056, 997 426.016 C 997 427.664, 997.677 428, 1001 428 L 1005 428 1005 401 L 1005 374 1001 374 L 997 374 997 383.484 M 784 402.440 L 784 428 787.976 428 L 791.953 428 792.226 410.963 L 792.500 393.925 800.873 407.963 C 807.487 419.050, 809.694 421.995, 811.373 421.975 C 813.041 421.955, 815.388 418.769, 822.241 407.225 L 830.983 392.500 830.991 410.250 L 831 428 835 428 L 839 428 839 402.500 L 839 377 835.250 377.036 L 831.500 377.073 821.564 394.517 C 816.099 404.111, 811.445 411.779, 811.223 411.556 C 811 411.333, 806.410 403.579, 801.023 394.325 C 791.416 377.822, 791.159 377.494, 787.614 377.190 L 784 376.879 784 402.440 M 895.502 390.575 C 888.449 394.253, 885 400.140, 885 408.500 C 885 420.645, 892.696 428, 905.403 428 C 911.670 428, 915.535 426.771, 918.756 423.754 L 921.011 421.641 918.886 419.379 L 916.761 417.117 913.875 419.251 C 910.337 421.866, 902.919 422.095, 898.400 419.728 C 896.695 418.835, 894.580 416.618, 893.700 414.802 L 892.099 411.500 907.671 411.224 L 923.243 410.948 922.789 405.464 C 922.263 399.121, 918.587 393.637, 912.929 390.752 C 908.629 388.559, 899.546 388.467, 895.502 390.575 M 1053 408.500 L 1053 428 1057 428 L 1061 428 1061 408.500 L 1061 389 1057 389 L 1053 389 1053 408.500 M 1112.373 390.918 C 1107.166 393.283, 1106.745 394.010, 1108.915 396.888 C 1110.640 399.174, 1110.740 399.186, 1113.990 397.505 C 1121.788 393.473, 1132 396.034, 1132 402.023 L 1132 405 1123.968 405 C 1113.654 405, 1109.450 406.680, 1107.383 411.626 C 1104.447 418.653, 1108.377 426.230, 1115.668 427.598 C 1120.941 428.587, 1128.779 427.510, 1131.010 425.491 C 1132.938 423.746, 1133 423.757, 1133 425.845 C 1133 427.641, 1133.583 428, 1136.500 428 L 1140 428 1140 413.734 C 1140 397.512, 1138.930 394.041, 1132.938 390.827 C 1128.321 388.351, 1117.926 388.397, 1112.373 390.918 M 899 396.711 C 897.029 397.718, 894.736 400.029, 893.752 402 L 892.003 405.500 903.635 405.783 C 910.033 405.938, 915.533 405.800, 915.857 405.476 C 916.764 404.569, 913.794 399.910, 911 397.859 C 907.195 395.065, 903.004 394.664, 899 396.711 M 980.071 396.752 C 975.050 399.312, 972.667 403.093, 972.667 408.500 C 972.667 414.034, 975.076 417.729, 980.412 420.379 C 983.632 421.978, 984.766 422.087, 988.024 421.111 C 993.884 419.355, 997 414.998, 997 408.558 C 997 402.395, 994.599 398.566, 989.364 396.379 C 985.119 394.605, 984.209 394.642, 980.071 396.752 M 1117.009 411.290 C 1115.639 411.983, 1114.361 413.362, 1114.170 414.354 C 1112.667 422.161, 1122.173 425.585, 1129.453 419.858 C 1131.410 418.319, 1132 416.945, 1132 413.927 L 1132 410 1125.750 410.015 C 1122.313 410.023, 1118.379 410.597, 1117.009 411.290 M 267.244 484.246 C 267.498 484.936, 273.004 499.337, 279.481 516.250 L 291.257 547 411.649 547 L 532.041 547 530.065 543.250 C 528.978 541.188, 520.531 526.900, 511.294 511.500 L 494.500 483.500 380.641 483.246 C 289.684 483.043, 266.876 483.244, 267.244 484.246" stroke="none" fill="#110f0f" fill-rule="evenodd"/><path d="M 331.774 8.626 C 311.765 40.822, 5.893 546.226, 6.219 546.552 C 6.469 546.803, 65.415 546.893, 137.209 546.754 L 267.743 546.500 255.876 515.555 C 249.349 498.535, 243.651 484.251, 243.212 483.812 C 242.774 483.374, 214.690 482.899, 180.804 482.758 L 119.193 482.500 226.346 306.401 C 285.281 209.547, 333.950 130.211, 334.500 130.099 C 335.050 129.987, 410.909 253.782, 503.077 405.198 L 670.653 680.500 707.327 680.762 C 727.497 680.907, 744 680.797, 744 680.518 C 744 679.685, 336.886 7.617, 335.479 6.126 C 334.393 4.977, 333.789 5.384, 331.774 8.626 M 1113.178 255.937 C 1114.455 257.552, 1123.825 268.775, 1134 280.876 L 1152.500 302.879 1165 302.924 C 1171.875 302.949, 1176.935 302.611, 1176.244 302.172 C 1175.554 301.734, 1171.504 297.067, 1167.244 291.801 C 1162.985 286.536, 1156.350 278.631, 1152.500 274.236 C 1148.650 269.840, 1143.110 263.264, 1140.190 259.622 L 1134.879 253 1122.867 253 L 1110.855 253 1113.178 255.937 M 1169.184 410.750 L 1169.500 413.500 1514 413.500 L 1858.500 413.500 1858.816 410.750 L 1859.133 408 1514 408 L 1168.867 408 1169.184 410.750" stroke="none" fill="#630ca3" fill-rule="evenodd"/></svg>