<svg xmlns="http://www.w3.org/2000/svg" width="1865" height="685" viewBox="0 0 1865 685" version="1.1"><path d="M 405.750 4.749 C 388.288 4.903, 374 5.318, 374 5.672 C 374 6.026, 376.642 10.632, 379.872 15.908 C 384.941 24.189, 529.977 262.639, 664.281 483.500 C 687.358 521.450, 723.831 581.413, 745.331 616.750 L 784.422 681 821.818 681 C 851.328 681, 859.111 680.736, 858.726 679.750 C 858.458 679.063, 835.616 641.375, 807.968 596 C 780.319 550.625, 737.136 479.750, 712.004 438.500 C 626.129 297.546, 574.008 212.003, 527.845 136.249 C 502.457 94.587, 475.394 50.150, 467.705 37.500 C 460.017 24.850, 452.218 12.138, 450.375 9.250 L 447.025 4 442.262 4.235 C 439.643 4.365, 423.212 4.596, 405.750 4.749 M 1099.381 159.941 C 1084.925 162.224, 1070.751 169.980, 1060.500 181.215 C 1053.047 189.383, 1048.540 196.791, 1044.608 207.335 C 1041.704 215.121, 1041.561 216.219, 1041.531 231 C 1041.501 245.880, 1041.625 246.851, 1044.635 255.261 C 1049.089 267.711, 1053.291 274.290, 1063 284.013 C 1076.569 297.603, 1089.502 303, 1108.500 303 C 1118.909 303, 1126.874 301.476, 1134.805 297.968 L 1139.235 296.008 1137.454 293.254 C 1136.474 291.739, 1133.623 288.025, 1131.118 285 C 1128.613 281.975, 1126.533 279.409, 1126.495 279.297 C 1126.458 279.185, 1124.022 279.799, 1121.083 280.660 C 1117.333 281.760, 1112.988 282.107, 1106.517 281.824 C 1098.650 281.480, 1096.346 280.953, 1090.823 278.233 C 1082.567 274.169, 1073.973 265.305, 1069.947 256.700 C 1062.100 239.931, 1062.319 221.960, 1070.574 205.185 C 1083.995 177.911, 1116.992 171.832, 1137.935 192.775 C 1151.186 206.026, 1156.327 227.318, 1150.907 246.500 C 1149.819 250.350, 1148.672 254.487, 1148.359 255.692 C 1147.918 257.386, 1149.347 259.700, 1154.644 265.873 C 1158.415 270.267, 1162.175 273.780, 1163 273.679 C 1165.112 273.421, 1172.435 258.363, 1174.647 249.730 C 1175.978 244.538, 1176.479 239.117, 1176.426 230.500 C 1176.360 219.706, 1176.027 217.545, 1173.117 209 C 1163.151 179.737, 1140.634 161.275, 1112.903 159.631 C 1108.281 159.357, 1102.197 159.496, 1099.381 159.941 M 816.565 226.227 C 802.301 262.677, 789.815 294.637, 788.819 297.250 L 787.008 302 799.259 302 L 811.510 302 813.908 295.750 C 815.226 292.313, 818.527 283.755, 821.242 276.734 L 826.179 263.968 853.200 264.234 L 880.221 264.500 887.392 283 L 894.563 301.500 906.782 301.781 C 913.502 301.935, 919 301.919, 919 301.746 C 919 301.572, 906.671 269.721, 891.602 230.965 L 864.203 160.500 853.352 160.227 L 842.500 159.954 816.565 226.227 M 1317.249 205.717 C 1317.651 256.984, 1317.663 257.081, 1325.147 272.791 C 1332.159 287.510, 1344.980 297.918, 1360.603 301.575 C 1370.365 303.860, 1390.944 303.108, 1400.155 300.130 C 1419.720 293.805, 1433.873 275.006, 1437.939 249.947 C 1438.546 246.204, 1438.988 225.992, 1438.992 201.750 L 1439 160 1427.558 160 L 1416.116 160 1415.758 203.250 C 1415.449 240.552, 1415.162 247.325, 1413.669 252.500 C 1409.779 265.991, 1403.451 274.654, 1394.195 279.161 C 1387.088 282.621, 1371.710 283.017, 1363.559 279.949 C 1356.532 277.304, 1349.524 270.794, 1346.115 263.744 C 1340.813 252.776, 1340.680 251.478, 1340.071 204.500 L 1339.500 160.500 1328.194 160.217 L 1316.889 159.933 1317.249 205.717 M 1586.698 160.636 C 1586.314 161.019, 1586 192.983, 1586 231.667 L 1586 302 1598.007 302 L 1610.013 302 1609.757 231.250 L 1609.500 160.500 1598.448 160.219 C 1592.369 160.065, 1587.081 160.252, 1586.698 160.636 M 1759.698 160.636 C 1759.314 161.019, 1759 192.983, 1759 231.667 L 1759 302 1808.500 302 L 1858 302 1858 292 L 1858 282 1820.508 282 L 1783.015 282 1782.758 221.250 L 1782.500 160.500 1771.448 160.219 C 1765.369 160.065, 1760.081 160.252, 1759.698 160.636 M 853.031 187 C 852.979 187.275, 847.874 200.775, 841.688 217 L 830.440 246.500 852.367 246.770 C 864.427 246.918, 874.493 246.840, 874.736 246.597 C 874.979 246.354, 870.580 233.633, 864.959 218.328 C 853.719 187.716, 853.170 186.275, 853.031 187 M 316.027 252.119 C 305.991 268.754, 277.129 316.551, 251.890 358.335 C 226.650 400.118, 206 434.687, 206 435.153 C 206 435.619, 264.087 436, 335.082 436 L 464.163 436 462.180 432.750 C 461.089 430.962, 432.218 383.150, 398.022 326.500 C 363.826 269.850, 335.493 223.134, 335.061 222.688 C 334.629 222.241, 326.063 235.485, 316.027 252.119 M 1111.617 252.811 C 1111.341 253.257, 1120.427 264.705, 1131.808 278.251 L 1152.500 302.881 1164.823 302.941 L 1177.145 303 1175.323 300.703 C 1174.320 299.440, 1170.125 294.452, 1166 289.617 C 1161.875 284.783, 1158.500 280.435, 1158.500 279.955 C 1158.500 278.419, 1146.840 263.873, 1145.138 263.286 C 1144.237 262.975, 1141.223 260.309, 1138.440 257.360 L 1133.380 252 1122.749 252 C 1116.902 252, 1111.893 252.365, 1111.617 252.811 M 976 403.500 L 976 430 978.500 430 L 981 430 981 417.450 C 981 403.336, 981.994 400.089, 987.128 397.434 C 991.097 395.381, 998.124 395.380, 1001.254 397.431 C 1005.239 400.042, 1006 403.188, 1006 417.047 C 1006 429.333, 1006.103 430, 1008 430 C 1009.907 430, 1010 429.335, 1009.996 415.750 C 1009.992 399.751, 1008.987 396.596, 1002.888 393.442 C 998.301 391.070, 988.478 391.812, 984.207 394.852 L 981 397.136 981 387.068 L 981 377 978.500 377 L 976 377 976 403.500 M 1212 403.500 L 1212 430 1214 430 C 1215.638 430, 1216 429.333, 1216 426.313 L 1216 422.626 1218.750 425.249 C 1222.319 428.654, 1226.023 430, 1231.815 429.998 C 1241.128 429.995, 1248.899 423.111, 1249.765 414.096 C 1250.028 411.355, 1249.938 407.485, 1249.565 405.497 C 1248.703 400.900, 1242.941 394.466, 1238.322 392.941 C 1232.727 391.095, 1224.752 392.189, 1220.572 395.377 L 1217 398.102 1217 387.551 L 1217 377 1214.500 377 L 1212 377 1212 403.500 M 787 380.500 C 787 381.722, 788.667 382, 796 382 L 805 382 805 406 L 805 430 807 430 L 809 430 809 406 L 809 382 818 382 C 825.333 382, 827 381.722, 827 380.500 C 827 379.217, 824.111 379, 807 379 C 789.889 379, 787 379.217, 787 380.500 M 1087 404.500 L 1087 430 1104 430 C 1118.444 430, 1121 429.775, 1121 428.500 C 1121 427.236, 1118.722 427, 1106.500 427 L 1092 427 1092 403 L 1092 379 1089.500 379 L 1087 379 1087 404.500 M 857.450 393.352 C 844.027 399.438, 843.940 421.984, 857.316 428.057 C 863.189 430.723, 871.417 430.584, 876.422 427.734 C 878.579 426.505, 880.529 424.938, 880.755 424.251 C 881.505 421.972, 878.182 421.806, 875.247 423.975 C 873.221 425.474, 870.851 426.123, 867.313 426.151 C 859.131 426.214, 854.194 422.650, 852.035 415.123 L 851.140 412 867.681 412 L 884.223 412 883.528 408.250 C 881.621 397.944, 876.123 392.747, 866.630 392.275 C 862.914 392.090, 859.299 392.514, 857.450 393.352 M 921.840 394.022 C 908.939 400.837, 909.013 421.374, 921.961 427.980 C 928.953 431.547, 939.875 430.226, 944.275 425.281 C 945.845 423.517, 945.877 423.143, 944.545 422.038 C 943.306 421.009, 942.493 421.249, 939.943 423.394 C 933.893 428.485, 923.164 426.597, 918.960 419.701 C 914.706 412.725, 917.229 401.001, 923.706 397.653 C 929.141 394.843, 935.896 395.201, 939.825 398.506 C 942.511 400.766, 946 401.083, 946 399.067 C 946 397.790, 941.579 394.163, 938.685 393.067 C 934.246 391.385, 925.941 391.856, 921.840 394.022 M 1152.373 393.864 C 1147.767 396.016, 1146.295 397.695, 1147.745 399.145 C 1148.373 399.773, 1150.091 399.414, 1152.608 398.129 C 1162.446 393.106, 1171.286 396.032, 1172.610 404.750 L 1173.256 409 1163.578 409 C 1149.971 409, 1146 411.353, 1146 419.418 C 1146 421.918, 1146.853 423.923, 1148.883 426.195 C 1151.508 429.133, 1152.379 429.455, 1158.633 429.800 C 1164.704 430.134, 1165.935 429.881, 1169.250 427.619 L 1173 425.060 1173 427.530 C 1173 429.333, 1173.540 430, 1175 430 C 1176.901 430, 1177 429.333, 1177 416.468 C 1177 402.072, 1176.115 398.140, 1172.065 394.529 C 1168.824 391.640, 1157.923 391.272, 1152.373 393.864 M 1283.230 394.001 C 1279.089 396.526, 1277.560 399.842, 1278.421 404.431 C 1279.256 408.880, 1281.596 410.471, 1290.264 412.482 C 1299.355 414.590, 1301.937 415.899, 1302.656 418.766 C 1303.102 420.541, 1302.602 421.853, 1300.788 423.666 C 1298.730 425.725, 1297.345 426.143, 1292.589 426.143 C 1288.836 426.143, 1285.442 425.438, 1282.728 424.095 C 1279.583 422.539, 1278.402 422.342, 1277.810 423.274 C 1276.446 425.420, 1276.905 426.055, 1281.250 428.027 C 1286.484 430.403, 1296.835 430.654, 1300.989 428.506 C 1307.340 425.221, 1309.060 417.813, 1304.460 413.551 C 1301.852 411.133, 1301.381 410.963, 1292 409.040 C 1285.733 407.755, 1283.592 406.442, 1282.583 403.263 C 1281.657 400.343, 1285.814 396.042, 1289.705 395.894 C 1295.033 395.692, 1298.503 396.209, 1301.207 397.607 C 1303.668 398.880, 1304.019 398.832, 1304.943 397.107 C 1307.370 392.572, 1289.716 390.047, 1283.230 394.001 M 862.016 396.107 C 857.730 397.012, 852 402.950, 852 406.485 L 852 409 865.625 409 L 879.250 409 878.602 405.750 C 877.252 398.980, 869.566 394.512, 862.016 396.107 M 1228.500 396.016 C 1220.704 397.671, 1217.007 402.490, 1217.007 411 C 1217.007 417.435, 1219.400 422.121, 1223.862 424.428 C 1235.537 430.466, 1248.042 420.699, 1245.562 407.479 C 1244.160 400.004, 1235.889 394.448, 1228.500 396.016 M 1335.184 410.750 L 1335.500 413.500 1597 413.500 L 1858.500 413.500 1858.816 410.750 L 1859.133 408 1597 408 L 1334.867 408 1335.184 410.750 M 1154.285 413.476 C 1147.206 416.554, 1149.802 425.312, 1158 426.009 C 1164.169 426.533, 1166.290 425.910, 1169.600 422.600 C 1172.207 419.993, 1173 418.361, 1173 415.600 L 1173 412 1165.250 412.039 C 1160.901 412.061, 1156.089 412.692, 1154.285 413.476 M 267.244 484.246 C 267.498 484.936, 273.004 499.337, 279.481 516.250 L 291.257 547 411.649 547 L 532.041 547 530.071 543.250 C 528.988 541.188, 520.529 526.900, 511.274 511.500 L 494.447 483.500 380.615 483.246 C 289.679 483.043, 266.876 483.244, 267.244 484.246" stroke="none" fill="#fbfbfb" fill-rule="evenodd"/><path d="M 331.673 8.750 C 323.656 21.530, 6.832 544.275, 6.363 545.495 C 5.851 546.830, 20.585 547, 136.889 547 L 267.992 547 266.179 542.250 C 265.181 539.638, 259.674 525.241, 253.941 510.257 L 243.516 483.015 181.411 482.757 L 119.305 482.500 226.687 306 C 285.747 208.925, 334.316 129.500, 334.620 129.500 C 334.923 129.500, 410.072 252.575, 501.617 403 C 593.162 553.425, 668.836 677.557, 669.781 678.849 L 671.500 681.198 707.463 681.053 C 727.242 680.973, 743.597 680.737, 743.806 680.528 C 744.344 679.990, 335.659 5.097, 334.763 5.044 C 334.357 5.020, 332.967 6.688, 331.673 8.750" stroke="none" fill="#640ca4" fill-rule="evenodd"/></svg>